{"title":"Rolling Stones Shine A Light 2008 720p AC3 5.1 x264-[MULVAcoded]","uid":12186258,"size":2043254004,"categoryP":"video","categoryS":"hd___movies","magnet":"?xt=urn:btih:75f3440ccf35857ae9e6ddee07739ad5aeeb9726&amp;dn=Rolling+Stones+Shine+A+Light+2008+720p+AC3+5.1+x264-%5BMULVAcoded%5D&amp;tr=udp%3A%2F%2Ftracker.openbittorrent.com%3A80&amp;tr=udp%3A%2F%2Fopen.demonii.com%3A1337&amp;tr=udp%3A%2F%2Ftracker.coppersurfer.tk%3A6969&amp;tr=udp%3A%2F%2Fexodus.desync.com%3A6969","seeders":2,"leechers":0,"uploader":"Mulva1989","files":4,"time":1438568267,"description":"The Rolling Stones - Shine A Light Concert 2008 720p BRrip AC3 5.1 x264-[MULVAcoded]\n\nShine a Light is a 2008 documentary film directed by Martin Scorsese documenting The Rolling Stones' 2006 Beacon Theater performance on their A Bigger Bang Tour.[1] The film also includes archive footage from the band's career and marked the first utilization by Scorsese of digital cinematography for his films, with it being used for the backstage sequences. The film takes its title from the song of the same name, featured on the band's 1972 album Exile on Main St. A soundtrack album was released in April 2008 on the Universal label. This is also the last movie by Paramount Classics, as the company merged into its sister company Paramount\nVantage after the movie was released.\n\nTrack list:\n1.\t&quot;Jumpin' Jack Flash&quot;\n2.\t&quot;Shattered&quot;\n3.\t&quot;She Was Hot&quot;\n4.\t&quot;All Down the Line&quot;\n6.\t&quot;Loving Cup&quot; - with Jack White\n7.\t&quot;As Tears Go By&quot; (Jagger/Richards/Oldham)\n8.\t&quot;Some Girls&quot;\n9.\t&quot;Just My Imagination&quot; (Norman Whitfield/Barrett Strong)\n10.\t&quot;Far Away Eyes&quot;\n11.\t&quot;Champagne &amp; Reefer&quot; (Muddy Waters) - with Buddy Guy\n12.\t&quot;Tumbling Dice&quot; (followed by band introductions)\n13.\t&quot;You Got the Silver&quot;\n14.\t&quot;Connection&quot; (incomplete/cut with 1999 interview clips)\n15.\t&quot;Sympathy for the Devil&quot;\n16.\t&quot;Live with Me&quot; - with Christina Aguilera\n17.\t&quot;Start Me Up&quot;\n18.\t&quot;Brown Sugar&quot;\n19.\t&quot;(I Can't Get No) Satisfaction&quot;\n20.\t&quot;Shine a Light&quot; (incomplete; audio only)\n\nScreens @ &lt;a href=&quot;\nhttps://yuq.me/users/50/321/EJrybwoPNK.jpg&quot; rel=&quot;nofollow&quot; target=&quot;_NEW&quot;&gt;\nhttps://yuq.me/users/50/321/EJrybwoPNK.jpg&lt;/a&gt; &lt;a href=&quot;\nhttps://yuq.me/users/50/321/0EtuR92ZHW.jpg&quot; rel=&quot;nofollow&quot; target=&quot;_NEW&quot;&gt;\nhttps://yuq.me/users/50/321/0EtuR92ZHW.jpg&lt;/a&gt; &lt;a href=&quot;\nhttps://yuq.me/users/50/321/DkCd9L0Ss5.jpg&quot; rel=&quot;nofollow&quot; target=&quot;_NEW&quot;&gt;\nhttps://yuq.me/users/50/321/DkCd9L0Ss5.jpg&lt;/a&gt;\n\nFormat : Matroska\nFormat version : Version 4 / Version 2\nFile size : 1.90 GiB\nDuration : 2h 2mn\nOverall bit rate : 2 232 Kbps\nEncoded date : UTC 2015-08-02 21:56:36\nWriting application : mkvmerge v7.9.0 ('Birds') 64bit\nWriting library : libebml v1.3.1 + libmatroska v1.4.2\nDURATION : 02:02:02.304000000\nNUMBER_OF_FRAMES : 228822\nNUMBER_OF_BYTES : 410049024\n_STATISTICS_WRITING_APP : mkvmerge v7.9.0 ('Birds') 64bit\n_STATISTICS_WRITING_DATE_UT : 2015-08-02 21:56:36\n_STATISTICS_TAGS : BPS DURATION NUMBER_OF_FRAMES NUMBER_OF_BYTES\n\nVideo\nID : 1\nFormat : AVC\nFormat/Info : Advanced Video Codec\nFormat profile : &lt;a class=&quot;__cf_email__&quot; href=&quot;/cdn-cgi/l/email-protection&quot; data-cfemail=&quot;a4eccdc3cce4e8918a94&quot;&gt;[email&amp;#160;protected]&lt;/a&gt;&lt;script data-cfhash='f9e31' type=&quot;text/javascript&quot;&gt;\n/* &lt;![CDATA[ */!function(){try{var t=&quot;currentScript&quot;in document?document.currentScript:function(){for(var t=document.getElementsByTagName(&quot;script&quot;),e=t.length;e--;)if(t[e].getAttribute(&quot;data-cfhash&quot;))return t[e]}();if(t&amp;&amp;t.previousSibling){var e,r,n,i,c=t.previousSibling,a=c.getAttribute(&quot;data-cfemail&quot;);if(a){for(e=&quot;&quot;,r=parseInt(a.substr(0,2),16),n=2;a.length-n;n+=2)i=parseInt(a.substr(n,2),16)^r,e+=String.fromCharCode(i);e=document.createTextNode(e),c.parentNode.replaceChild(e,c)}t.parentNode.removeChild(t);}}catch(u){}}()/* ]]&gt; */&lt;/script&gt;\nFormat settings, CABAC : Yes\nFormat settings, ReFrames : 16 frames\nCodec ID : V_MPEG4/ISO/AVC\nDuration : 2h 2mn\nBit rate : 1 740 Kbps\nWidth : 1 280 pixels\nHeight : 720 pixels\nDisplay aspect ratio : 16:9\nFrame rate mode : Constant\nFrame rate : 23.976 fps\nColor space : YUV\nChroma subsampling : 4:2:0\nBit depth : 8 bits\nScan type : Progressive\nBits/(Pixel*Frame) : 0.079\nStream size : 1.48 GiB (78%)\nWriting library : x264 core 130 r2273 b3065e6\nEncoding settings : cabac=1 / ref=16 / deblock=1:0:0 / analyse=0x3:0x113 / me=umh / subme=8 / psy=1 / psy_rd=1.00:0.00 / mixed_ref=1 / me_range=16 / chroma_me=1 / trellis=1 / 8x8dct=1 / cqm=0 / deadzone=21,11 / fast_pskip=1 / chroma_qp_offset=-2 / threads=6 / lookahead_threads=3 / sliced_threads=0 / nr=0 / decimate=1 / interlaced=0 / bluray_compat=0 / constrained_intra=0 / bframes=16 / b_pyramid=2 / b_adapt=2 / b_bias=0 / direct=3 / weightb=1 / open_gop=0 / weightp=2 / keyint=240 / keyint_min=24 / scenecut=40 / intra_refresh=0 / rc_lookahead=50 / rc=crf / mbtree=1 / crf=25.0 / qcomp=0.60 / qpmin=0 / qpmax=69 / qpstep=4 / ip_ratio=1.40 / aq=1:1.00\nLanguage : English\nDefault : Yes\nForced : No\nColor primaries : BT.709\nTransfer characteristics : BT.709\nMatrix coefficients : BT.709\nColor range : Limited\n\nAudio\nID : 2\nFormat : AC-3\nFormat/Info : Audio Coding 3\nMode extension : CM (complete main)\nFormat settings, Endianness : Big\nCodec ID : A_AC3\nDuration : 2h 2mn\nBit rate mode : Constant\nBit rate : 448 Kbps\nChannel(s) : 6 channels\nChannel positions : Front: L C R, Side: L R, LFE\nSampling rate : 48.0 KHz\nBit depth : 16 bits\nCompression mode : Lossy\nStream size : 391 MiB (20%)\nLanguage : English\nDefault : Yes\nForced : No\n\nText\nID : 3\nFormat : UTF-8\nCodec ID : S_TEXT/UTF8\nCodec ID/Info : UTF-8 Plain Text\nLanguage : English\nDefault : Yes\nForced : No\n\nMenu\n00:00:00.000 : en:Preparations\n00:08:50.530 : en:Before the Show\n00:11:52.712 : en:Jumping Jack Flash\n00:16:21.981 : en:Shattered\n00:20:33.232 : en:She Was Hot\n00:25:50.549 : en:All Down the Line\n00:30:34.833 : en:Loving Cup (Featuring Jack White)\n00:37:43.261 : en:As Tears Go By\n00:41:43.501 : en:Some Girls\n00:46:07.765 : en:Just My Imagination (Running Away with Me)\n00:58:29.506 : en:Faraway Eyes\n01:03:47.823 : en:Champagne &amp; Reefer (Featuring Buddy Guy)\n01:09:55.191 : en:Tumbling Dice\n01:15:17.513 : en:You Got the Silver\n01:21:38.894 : en:Connection\n01:25:56.151 : en:Sympathy for the Devil\n01:34:05.640 : en:Live with Me (Featuring Christina Aguilera)\n01:38:07.882 : en:Start Me Up\n01:42:15.129 : en:Brown Sugar\n01:49:08.542 : en:(I Can't Get No) Satisfaction\n01:56:14.968 : en:Shine a Light (End Credits)","torrent":{"xt":"urn:btih:75f3440ccf35857ae9e6ddee07739ad5aeeb9726","amp;dn":"Rolling+Stones+Shine+A+Light+2008+720p+AC3+5.1+x264-%5BMULVAcoded%5D","amp;tr":["udp%3A%2F%2Ftracker.openbittorrent.com%3A80","udp%3A%2F%2Fopen.demonii.com%3A1337","udp%3A%2F%2Ftracker.coppersurfer.tk%3A6969","udp%3A%2F%2Fexodus.desync.com%3A6969"],"infoHash":"75f3440ccf35857ae9e6ddee07739ad5aeeb9726","infoHashBuffer":{"type":"Buffer","data":[117,243,68,12,207,53,133,122,233,230,221,238,7,115,154,213,174,235,151,38]},"announce":[],"urlList":[]}}